<?xml version="1.0" encoding="UTF-8"?>
<svg version="1.1" xmlns="http://www.w3.org/2000/svg" width="512" height="512">
<path d="M0 0 C0.77730469 0.72445312 1.55460937 1.44890625 2.35546875 2.1953125 C4.29217432 3.99443789 6.28148736 5.68459196 8.3125 7.375 C50.3168722 44.23425834 76.71549223 102.89000368 80.35498047 158.23925781 C83.54072988 223.00543605 64.93696194 284.37963757 21.5 333.1875 C20.82952637 333.95054443 20.82952637 333.95054443 20.14550781 334.72900391 C-15.48530829 375.19524753 -65.47562137 400.89596308 -118.5 409.1875 C-119.24443359 409.30609375 -119.98886719 409.4246875 -120.75585938 409.546875 C-180.97328347 418.66908172 -243.68068343 401.85815635 -292.56640625 366.16015625 C-298.44686313 361.76947231 -304.02006341 357.06441501 -309.5 352.1875 C-310.00869629 351.74051758 -310.51739258 351.29353516 -311.04150391 350.83300781 C-329.90701614 334.22178975 -344.68224378 314.74092447 -357.5 293.1875 C-358.06195068 292.24970703 -358.06195068 292.24970703 -358.63525391 291.29296875 C-388.40901156 240.88296519 -395.09732358 175.99034455 -380.99609375 119.70703125 C-371.34845019 83.25965397 -354.32314236 49.04438807 -328.48828125 21.328125 C-326.70992158 19.41350594 -325.04300062 17.44754632 -323.375 15.4375 C-286.50136816 -26.60691699 -227.84669021 -53.02475749 -172.44824219 -56.66748047 C-109.63210854 -59.75731016 -47.47879301 -42.63696785 0 0 Z " fill="#E9F3F8" transform="translate(409.5,78.8125)"/>
<path d="M0 0 C0.71883362 0.00182281 1.43766724 0.00364563 2.17828369 0.00552368 C14.28834795 0.05697813 26.06760368 0.79268916 37.9375 3.3125 C38.72157227 3.47878906 39.50564453 3.64507812 40.31347656 3.81640625 C72.41263012 10.92322992 100.8173599 26.11212615 124.9375 48.3125 C125.4850293 48.81475098 126.03255859 49.31700195 126.59667969 49.83447266 C140.13054087 62.40851401 151.09909012 77.11789805 159.9375 93.3125 C160.28119629 93.93946777 160.62489258 94.56643555 160.97900391 95.21240234 C175.18526277 121.4849815 182.38961661 150.34990166 182.3125 180.1875 C182.31228851 180.9485202 182.31207703 181.70954041 182.31185913 182.49362183 C182.27443112 196.07289316 181.01419773 209.05514347 177.9375 222.3125 C177.75558105 223.11880859 177.57366211 223.92511719 177.38623047 224.75585938 C170.78066013 253.20880758 156.27962877 280.79998774 136.15234375 301.9765625 C134.22765729 304.00647873 132.45758395 306.08705453 130.6875 308.25 C114.97731415 326.19403512 92.6709809 339.42846623 71 348.8125 C69.84697388 349.32043091 69.84697388 349.32043091 68.6706543 349.83862305 C62.73368963 352.31433539 56.20382682 354.63292999 50 352.125 C47.00841894 349.49603483 46.0402838 347.46879588 45.6859436 343.48254395 C45.68468475 342.39066772 45.6834259 341.2987915 45.68212891 340.17382812 C45.67516998 338.93153442 45.66821106 337.68924072 45.66104126 336.40930176 C45.66206282 335.41659019 45.66206282 335.41659019 45.66310501 334.40382385 C45.66407516 332.31650754 45.65106674 330.22969946 45.63412476 328.14245605 C45.58803051 322.20894416 45.56330075 316.27548172 45.55664062 310.34179688 C45.55157697 306.70593716 45.5270768 303.07060211 45.49131393 299.43492126 C45.48161851 298.06049272 45.47912695 296.68599099 45.48448563 295.3115387 C45.52861721 283.4235737 44.0083453 273.10354127 36.109375 263.8359375 C34.9375 262.3125 34.9375 262.3125 34.9375 260.3125 C35.585979 260.18721924 36.23445801 260.06193848 36.90258789 259.93286133 C59.44604 255.53194837 79.12139915 251.03786649 95.9375 234.3125 C96.48921875 233.79558594 97.0409375 233.27867187 97.609375 232.74609375 C114.25908679 215.60405177 115.44650109 188.73717579 115.2109375 166.46875 C114.84158934 152.35306787 110.73222198 137.79261608 100.375 127.625 C98.41967043 125.54034969 97.9292543 124.81796119 97.9765625 121.91796875 C98.49703855 119.32724096 99.17658534 116.8420271 99.9375 114.3125 C102.33439031 101.12960332 100.31459915 88.89190234 95.9375 76.3125 C80.0461367 74.77462613 64.99326199 83.09394479 51.9375 91.3125 C51.31037109 91.86107666 50.68324219 92.40965332 50.03710938 92.97485352 C47.32355796 94.70363819 46.19304313 94.42233376 43.0859375 93.765625 C41.68408203 93.4871875 41.68408203 93.4871875 40.25390625 93.203125 C39.28324219 92.99171875 38.31257812 92.7803125 37.3125 92.5625 C13.47500831 87.63284185 -12.66825431 86.7703212 -36.33984375 93.203125 C-40.35778386 94.26255381 -42.80640884 94.88601467 -46.671875 93.12109375 C-48.52183121 91.92610758 -50.33906847 90.67933696 -52.125 89.390625 C-63.60240442 81.27097187 -77.8502645 75.33234583 -92.0625 76.3125 C-92.71327296 78.35259755 -93.35789824 80.39465669 -94 82.4375 C-94.35964844 83.57445312 -94.71929687 84.71140625 -95.08984375 85.8828125 C-98.2455394 97.01012488 -97.43822753 107.16296202 -94.62109375 118.28125 C-94.07779893 121.22947925 -93.89961764 122.60102677 -95.0625 125.3125 C-96.48046875 127.21484375 -96.48046875 127.21484375 -98.25 129.25 C-108.49432819 142.08170472 -111.63542242 157.24989622 -111.5 173.3125 C-111.49242676 174.57908447 -111.48485352 175.84566895 -111.47705078 177.15063477 C-111.08473567 199.74884399 -105.67101314 220.20863315 -89.8125 237 C-73.84928915 252.31495864 -52.20573419 256.93367807 -31.0625 260.3125 C-32.33259333 262.97503511 -33.74965071 265.33648302 -35.4375 267.75 C-37.82815646 271.40832443 -38.74637801 274.82445644 -39.75 279.0625 C-41.37172151 284.80498927 -41.37172151 284.80498927 -44.359375 287 C-46.93570381 288.03662934 -49.34332105 288.75944665 -52.0625 289.3125 C-52.88492188 289.498125 -53.70734375 289.68375 -54.5546875 289.875 C-64.60680963 291.62864124 -73.9618797 290.02421912 -82.6875 284.75 C-88.82078958 280.39699271 -93.0776742 274.37995805 -97.125 268.125 C-101.5896171 261.64410421 -107.25908137 256.25543884 -114.84765625 253.71484375 C-117.85801327 253.16798877 -120.75552851 253.21943029 -123.8125 253.25 C-124.98296875 253.25902344 -126.1534375 253.26804687 -127.359375 253.27734375 C-128.69742188 253.29474609 -128.69742188 253.29474609 -130.0625 253.3125 C-128.69541477 257.88788929 -126.82258064 259.53865406 -122.875 262.125 C-113.34117591 268.8408839 -108.93350272 276.09224273 -103.96484375 286.39453125 C-97.33121898 300.14716797 -90.61467168 307.09527697 -76.0625 312.3125 C-72.52423745 313.49192085 -69.72101274 313.42539189 -65.98828125 313.41015625 C-65.3044487 313.4087413 -64.62061615 313.40732635 -63.9160614 313.40586853 C-61.73566278 313.40027876 -59.55536749 313.38772822 -57.375 313.375 C-55.89518378 313.36998367 -54.41536594 313.365421 -52.93554688 313.36132812 C-49.31116443 313.35031271 -45.6868423 313.33305512 -42.0625 313.3125 C-41.98813245 317.9206187 -41.93379606 322.52838514 -41.89770508 327.13696289 C-41.88265378 328.70343107 -41.86220793 330.26985736 -41.83618164 331.83618164 C-41.79963567 334.09271606 -41.78273739 336.34869153 -41.76953125 338.60546875 C-41.75404739 339.30149704 -41.73856354 339.99752533 -41.72261047 340.71464539 C-41.72110696 345.09599293 -42.29022635 347.88125929 -45.0625 351.3125 C-48.66359022 353.77609215 -51.41017232 353.43675719 -55.57373047 352.8515625 C-59.99364673 351.89421748 -64.00879177 350.15314333 -68.125 348.3125 C-69.04112061 347.90878174 -69.95724121 347.50506348 -70.90112305 347.08911133 C-85.6085984 340.49080248 -98.50018955 332.39935262 -111.0625 322.3125 C-111.67899414 321.8184668 -112.29548828 321.32443359 -112.93066406 320.81542969 C-150.28484681 290.56872372 -173.04743509 245.93770566 -178.0625 198.3125 C-178.43280302 192.50511152 -178.45271606 186.69214424 -178.4375 180.875 C-178.43695618 180.08802734 -178.43641235 179.30105469 -178.43585205 178.49023438 C-178.39350804 165.10275293 -177.34052067 152.33917831 -174.0625 139.3125 C-173.85351074 138.46913086 -173.64452148 137.62576172 -173.42919922 136.75683594 C-161.59473111 90.53592455 -131.95258525 50.22901259 -91.05859375 25.65625 C-89.72847566 24.87174718 -88.39648438 24.09041034 -87.0625 23.3125 C-86.44262207 22.95027344 -85.82274414 22.58804688 -85.18408203 22.21484375 C-71.45454947 14.30055856 -57.16312004 8.88845502 -41.8125 5 C-40.85545166 4.75749512 -39.89840332 4.51499023 -38.91235352 4.26513672 C-25.98690844 1.14858142 -13.27124837 -0.07029059 0 0 Z " fill="#3D76BE" transform="translate(254.0625,75.6875)"/>
<path d="M0 0 C0 13.86 0 27.72 0 42 C-5.94 42.33 -11.88 42.66 -18 43 C-21.15281657 43.3307483 -24.19989008 43.67139839 -27.3125 44.1875 C-28.46552612 44.37542114 -28.46552612 44.37542114 -29.6418457 44.56713867 C-39.30316391 46.25813646 -48.67270753 49.00214258 -58 52 C-58.71784668 52.23058105 -59.43569336 52.46116211 -60.17529297 52.69873047 C-83.85457378 60.50489989 -104.73182999 74.22814275 -123 91 C-123.5151416 91.46986328 -124.0302832 91.93972656 -124.56103516 92.42382812 C-151.10465903 116.93087861 -167.41165388 150.32265174 -176 185 C-176.18224121 185.73041504 -176.36448242 186.46083008 -176.55224609 187.21337891 C-182.24008878 211.40793364 -180.72195041 240.00177418 -175 264 C-174.78569336 264.90733887 -174.57138672 265.81467773 -174.35058594 266.74951172 C-171.24525408 279.46238779 -166.76691527 291.26912857 -161 303 C-160.53255371 303.96945557 -160.53255371 303.96945557 -160.05566406 304.95849609 C-153.32143243 318.80108334 -144.5690873 331.68875544 -133.9921875 342.88671875 C-132.16842602 344.82133632 -130.49582305 346.81900095 -128.8125 348.875 C-113.05482852 366.83729983 -90.77934513 380.09610596 -69.0625 389.5 C-68.29381592 389.83862061 -67.52513184 390.17724121 -66.7331543 390.52612305 C-61.22857425 392.82153114 -54.7571555 395.30175928 -48.86352539 393.25976562 C-46.4954978 391.65895043 -45.89883157 390.72308065 -45 388 C-44.76494889 385.43207563 -44.62828472 382.96121582 -44.5859375 380.390625 C-44.56657135 379.66381531 -44.5472052 378.93700562 -44.5272522 378.18817139 C-44.46765729 375.87556552 -44.42115242 373.56290933 -44.375 371.25 C-44.33680164 369.67836418 -44.29774883 368.10674887 -44.2578125 366.53515625 C-44.16197257 362.69027158 -44.07786805 358.84528893 -44 355 C-45.56306885 355.23904053 -45.56306885 355.23904053 -47.15771484 355.48291016 C-63.55095838 357.689092 -79.14194761 357.58036323 -92.9375 347.6875 C-100.13469974 341.53716568 -103.94732255 334.31517102 -108.03710938 325.93823242 C-113.03831613 315.74098223 -118.36798654 308.71718374 -127.875 302.4375 C-131 300 -131 300 -131.9375 297.1875 C-131.958125 296.465625 -131.97875 295.74375 -132 295 C-127.18124859 292.5906243 -119.99541423 293.39633595 -114.9375 294.9375 C-105.50171353 299.00364303 -98.88356032 308.20354292 -93.3125 316.4375 C-87.30995624 324.68128931 -80.04142895 329.16463308 -70 331 C-66.23866393 331.4602239 -62.76707586 331.3913845 -59 331 C-57.80117187 330.87625 -56.60234375 330.7525 -55.3671875 330.625 C-51.37145482 329.89091967 -48.47789873 329.11717645 -45 327 C-43.01825889 323.3234068 -42.05502136 319.89368876 -41.0859375 315.86328125 C-39.73878329 310.40609668 -36.51069379 306.2998411 -33 302 C-33.59683594 301.97421875 -34.19367188 301.9484375 -34.80859375 301.921875 C-57.20024373 300.45793355 -77.87320994 292.79934254 -94 277 C-94.94166016 276.11248047 -94.94166016 276.11248047 -95.90234375 275.20703125 C-113.01828786 257.62534716 -114.51704155 231.18476089 -114.2734375 208.15625 C-113.90408934 194.04056787 -109.79472198 179.48011608 -99.4375 169.3125 C-97.48217043 167.22784969 -96.9917543 166.50546119 -97.0390625 163.60546875 C-97.55955129 161.01467754 -98.23792654 158.52926003 -99 156 C-101.351139 143.30384941 -100.51371095 128.50168781 -94 117 C-78.52742967 115.93292618 -62.26340379 123.22304634 -50.1875 132.625 C-46.89129556 134.89421537 -45.12666988 135.28589694 -41.1875 134.5625 C-40.26839844 134.32917969 -39.34929687 134.09585938 -38.40234375 133.85546875 C-34.0500337 132.7611451 -29.68240289 132.06030184 -25.25 131.375 C-24.46520264 131.24037354 -23.68040527 131.10574707 -22.87182617 130.96704102 C-15.02820227 129.73115761 -8.24341601 130 0 130 C0 233.62 0 337.24 0 444 C-27.66674312 444 -27.66674312 444 -35.9375 442.25 C-36.88165771 442.06663086 -37.82581543 441.88326172 -38.79858398 441.69433594 C-41.53784936 441.15302869 -44.26853975 440.57918127 -47 440 C-48.48167009 439.70782196 -49.96343404 439.41611937 -51.4453125 439.125 C-83.00778316 432.61628171 -112.97645139 417.06769938 -138 397 C-138.99644531 396.20722656 -139.99289063 395.41445313 -141.01953125 394.59765625 C-155.28063654 383.01660933 -168.21375018 369.87559123 -179 355 C-180.12921875 353.47052734 -180.12921875 353.47052734 -181.28125 351.91015625 C-208.41412056 314.02922957 -222.14883487 270.38607944 -222.24023438 224.04272461 C-222.24987563 221.10045387 -222.28094662 218.15890264 -222.3125 215.21679688 C-222.40598825 198.64015527 -220.66751507 182.59334247 -216.3125 166.5625 C-216.05831299 165.6127832 -215.80412598 164.66306641 -215.54223633 163.68457031 C-207.49769965 134.62696222 -193.86616188 107.5252836 -175 84 C-174.20722656 83.00355469 -173.41445312 82.00710937 -172.59765625 80.98046875 C-161.01985495 66.72336017 -147.88134253 53.77248032 -133 43 C-131.95714844 42.23558594 -130.91429687 41.47117188 -129.83984375 40.68359375 C-91.16627318 13.12807569 -47.34367663 -0.5349568 0 0 Z " fill="#FEFEFE" transform="translate(256,34)"/>
<path d="M0 0 C0.71883362 0.00182281 1.43766724 0.00364563 2.17828369 0.00552368 C14.28834795 0.05697813 26.06760368 0.79268916 37.9375 3.3125 C38.72157227 3.47878906 39.50564453 3.64507812 40.31347656 3.81640625 C72.41263012 10.92322992 100.8173599 26.11212615 124.9375 48.3125 C125.4850293 48.81475098 126.03255859 49.31700195 126.59667969 49.83447266 C140.13054087 62.40851401 151.09909012 77.11789805 159.9375 93.3125 C160.28119629 93.93946777 160.62489258 94.56643555 160.97900391 95.21240234 C175.18526277 121.4849815 182.38961661 150.34990166 182.3125 180.1875 C182.31228851 180.9485202 182.31207703 181.70954041 182.31185913 182.49362183 C182.27443112 196.07289316 181.01419773 209.05514347 177.9375 222.3125 C177.75558105 223.11880859 177.57366211 223.92511719 177.38623047 224.75585938 C170.78066013 253.20880758 156.27962877 280.79998774 136.15234375 301.9765625 C134.22765729 304.00647873 132.45758395 306.08705453 130.6875 308.25 C114.97731415 326.19403512 92.6709809 339.42846623 71 348.8125 C69.84697388 349.32043091 69.84697388 349.32043091 68.6706543 349.83862305 C62.73368963 352.31433539 56.20382682 354.63292999 50 352.125 C47.00841894 349.49603483 46.0402838 347.46879588 45.6859436 343.48254395 C45.68468475 342.39066772 45.6834259 341.2987915 45.68212891 340.17382812 C45.67516998 338.93153442 45.66821106 337.68924072 45.66104126 336.40930176 C45.66206282 335.41659019 45.66206282 335.41659019 45.66310501 334.40382385 C45.66407516 332.31650754 45.65106674 330.22969946 45.63412476 328.14245605 C45.58803051 322.20894416 45.56330075 316.27548172 45.55664062 310.34179688 C45.55157697 306.70593716 45.5270768 303.07060211 45.49131393 299.43492126 C45.48161851 298.06049272 45.47912695 296.68599099 45.48448563 295.3115387 C45.52861721 283.4235737 44.0083453 273.10354127 36.109375 263.8359375 C34.9375 262.3125 34.9375 262.3125 34.9375 260.3125 C35.585979 260.18721924 36.23445801 260.06193848 36.90258789 259.93286133 C59.44604 255.53194837 79.12139915 251.03786649 95.9375 234.3125 C96.48921875 233.79558594 97.0409375 233.27867187 97.609375 232.74609375 C114.25908679 215.60405177 115.44650109 188.73717579 115.2109375 166.46875 C114.84158934 152.35306787 110.73222198 137.79261608 100.375 127.625 C98.41967043 125.54034969 97.9292543 124.81796119 97.9765625 121.91796875 C98.49703855 119.32724096 99.17658534 116.8420271 99.9375 114.3125 C102.33439031 101.12960332 100.31459915 88.89190234 95.9375 76.3125 C80.0461367 74.77462613 64.99326199 83.09394479 51.9375 91.3125 C51.31037109 91.86107666 50.68324219 92.40965332 50.03710938 92.97485352 C47.32355796 94.70363819 46.19304313 94.42233376 43.0859375 93.765625 C41.68408203 93.4871875 41.68408203 93.4871875 40.25390625 93.203125 C39.28324219 92.99171875 38.31257812 92.7803125 37.3125 92.5625 C13.47500831 87.63284185 -12.66825431 86.7703212 -36.33984375 93.203125 C-40.35778386 94.26255381 -42.80640884 94.88601467 -46.671875 93.12109375 C-48.52183121 91.92610758 -50.33906847 90.67933696 -52.125 89.390625 C-63.60240442 81.27097187 -77.8502645 75.33234583 -92.0625 76.3125 C-92.71327296 78.35259755 -93.35789824 80.39465669 -94 82.4375 C-94.35964844 83.57445312 -94.71929687 84.71140625 -95.08984375 85.8828125 C-98.2455394 97.01012488 -97.43822753 107.16296202 -94.62109375 118.28125 C-94.07779893 121.22947925 -93.89961764 122.60102677 -95.0625 125.3125 C-96.48046875 127.21484375 -96.48046875 127.21484375 -98.25 129.25 C-108.49432819 142.08170472 -111.63542242 157.24989622 -111.5 173.3125 C-111.49242676 174.57908447 -111.48485352 175.84566895 -111.47705078 177.15063477 C-111.08473567 199.74884399 -105.67101314 220.20863315 -89.8125 237 C-73.84928915 252.31495864 -52.20573419 256.93367807 -31.0625 260.3125 C-32.33259333 262.97503511 -33.74965071 265.33648302 -35.4375 267.75 C-37.82815646 271.40832443 -38.74637801 274.82445644 -39.75 279.0625 C-41.37172151 284.80498927 -41.37172151 284.80498927 -44.359375 287 C-46.93570381 288.03662934 -49.34332105 288.75944665 -52.0625 289.3125 C-52.88492188 289.498125 -53.70734375 289.68375 -54.5546875 289.875 C-64.60680963 291.62864124 -73.9618797 290.02421912 -82.6875 284.75 C-88.82078958 280.39699271 -93.0776742 274.37995805 -97.125 268.125 C-101.5896171 261.64410421 -107.25908137 256.25543884 -114.84765625 253.71484375 C-117.85801327 253.16798877 -120.75552851 253.21943029 -123.8125 253.25 C-124.98296875 253.25902344 -126.1534375 253.26804687 -127.359375 253.27734375 C-128.69742188 253.29474609 -128.69742188 253.29474609 -130.0625 253.3125 C-128.69541477 257.88788929 -126.82258064 259.53865406 -122.875 262.125 C-113.34117591 268.8408839 -108.93350272 276.09224273 -103.96484375 286.39453125 C-97.33121898 300.14716797 -90.61467168 307.09527697 -76.0625 312.3125 C-72.52423745 313.49192085 -69.72101274 313.42539189 -65.98828125 313.41015625 C-65.3044487 313.4087413 -64.62061615 313.40732635 -63.9160614 313.40586853 C-61.73566278 313.40027876 -59.55536749 313.38772822 -57.375 313.375 C-55.89518378 313.36998367 -54.41536594 313.365421 -52.93554688 313.36132812 C-49.31116443 313.35031271 -45.6868423 313.33305512 -42.0625 313.3125 C-41.98813245 317.9206187 -41.93379606 322.52838514 -41.89770508 327.13696289 C-41.88265378 328.70343107 -41.86220793 330.26985736 -41.83618164 331.83618164 C-41.79963567 334.09271606 -41.78273739 336.34869153 -41.76953125 338.60546875 C-41.75404739 339.30149704 -41.73856354 339.99752533 -41.72261047 340.71464539 C-41.72110696 345.09599293 -42.29022635 347.88125929 -45.0625 351.3125 C-48.66359022 353.77609215 -51.41017232 353.43675719 -55.57373047 352.8515625 C-59.99364673 351.89421748 -64.00879177 350.15314333 -68.125 348.3125 C-69.04112061 347.90878174 -69.95724121 347.50506348 -70.90112305 347.08911133 C-85.6085984 340.49080248 -98.50018955 332.39935262 -111.0625 322.3125 C-111.67899414 321.8184668 -112.29548828 321.32443359 -112.93066406 320.81542969 C-150.28484681 290.56872372 -173.04743509 245.93770566 -178.0625 198.3125 C-178.43280302 192.50511152 -178.45271606 186.69214424 -178.4375 180.875 C-178.43695618 180.08802734 -178.43641235 179.30105469 -178.43585205 178.49023438 C-178.39350804 165.10275293 -177.34052067 152.33917831 -174.0625 139.3125 C-173.85351074 138.46913086 -173.64452148 137.62576172 -173.42919922 136.75683594 C-161.59473111 90.53592455 -131.95258525 50.22901259 -91.05859375 25.65625 C-89.72847566 24.87174718 -88.39648438 24.09041034 -87.0625 23.3125 C-86.44262207 22.95027344 -85.82274414 22.58804688 -85.18408203 22.21484375 C-71.45454947 14.30055856 -57.16312004 8.88845502 -41.8125 5 C-40.85545166 4.75749512 -39.89840332 4.51499023 -38.91235352 4.26513672 C-25.98690844 1.14858142 -13.27124837 -0.07029059 0 0 Z M-124.0625 67.3125 C-144.18584762 90.88426795 -157.88325132 117.91558982 -164.0625 148.3125 C-164.27648437 149.34117187 -164.49046875 150.36984375 -164.7109375 151.4296875 C-172.06098694 189.03211434 -164.58402498 230.0187466 -146.0625 263.3125 C-145.48757812 264.3746875 -144.91265625 265.436875 -144.3203125 266.53125 C-125.7496336 299.73596619 -95.29691 325.31869177 -60.0625 339.3125 C-58.0825 339.6425 -56.1025 339.9725 -54.0625 340.3125 C-54.0625 335.6925 -54.0625 331.0725 -54.0625 326.3125 C-55.57199219 326.22613281 -57.08148438 326.13976562 -58.63671875 326.05078125 C-76.71889148 324.85889606 -91.01498653 321.80329044 -104.1875 308.375 C-108.56965245 303.21693323 -111.23057982 297.29925175 -114.1484375 291.25 C-118.57507429 282.08901583 -123.04886656 275.61034891 -131.4440918 269.83447266 C-135.89180921 266.73699085 -139.02563741 263.39475818 -140.77734375 258.1875 C-141.34808678 253.38124289 -140.95326506 250.41552137 -138.0625 246.3125 C-131.25206756 241.06279166 -125.43424422 240.60065109 -117.0625 241.3125 C-103.07497193 244.58936401 -91.70601354 254.28287834 -84.1875 266.3125 C-80.70565061 271.22805208 -75.81780816 276.18509145 -70.0625 278.3125 C-66.69023759 278.59207674 -66.69023759 278.59207674 -63.0625 278.5 C-61.845625 278.49355469 -60.62875 278.48710937 -59.375 278.48046875 C-55.91248514 278.41177119 -55.91248514 278.41177119 -52.0625 277.3125 C-51.4025 274.6725 -50.7425 272.0325 -50.0625 269.3125 C-51.2175 268.94125 -52.3725 268.57 -53.5625 268.1875 C-55.39714664 267.56636571 -57.23025957 266.94069672 -59.0625 266.3125 C-60.26132813 265.9103125 -61.46015625 265.508125 -62.6953125 265.09375 C-77.00936838 260.13066543 -89.35446157 253.17743277 -100.0625 242.3125 C-100.68382812 241.70148438 -101.30515625 241.09046875 -101.9453125 240.4609375 C-120.48768326 220.920771 -124.00367567 193.315553 -123.40234375 167.56640625 C-122.7461754 152.1382771 -118.55540788 136.67863484 -108.75 124.421875 C-106.69519654 120.63570937 -106.99556384 118.841818 -107.67285156 114.71777344 C-110.09624782 99.75831235 -108.31822034 83.08455491 -101.64453125 69.40625 C-99.81634756 66.98672788 -98.95882462 66.2003181 -96.0625 65.3125 C-76.39362851 63.39210659 -60.71447186 70.52312854 -44.0625 80.3125 C-43.7325 80.6425 -43.4025 80.9725 -43.0625 81.3125 C-37.0725112 81.10494509 -31.0945399 80.04119957 -25.17431641 79.15698242 C-4.31582609 76.12444245 17.06798083 75.96856414 37.6640625 80.9453125 C44.17564681 81.99701168 47.92318987 81.20345822 53.5 77.6875 C66.43849958 69.8624819 82.51496051 61.79113899 98.05859375 64.7109375 C102.11155879 65.856179 103.67527692 66.94830127 106.1875 70.4375 C112.196551 85.1918663 113.71049219 101.32888878 111.19140625 117.015625 C110.65222026 121.55488776 111.86758167 123.81901344 114.5625 127.5625 C118.79659343 133.82548756 121.65343166 140.07096514 123.9375 147.3125 C124.2571875 148.31925781 124.576875 149.32601562 124.90625 150.36328125 C129.35236453 167.2214655 128.19609588 186.50865072 123.9375 203.3125 C123.77121094 203.98039551 123.60492188 204.64829102 123.43359375 205.33642578 C118.12791723 225.88609696 107.24512357 243.8918471 88.9375 255.3125 C79.85253233 260.52127482 70.35824356 264.15867974 60.20605469 266.67895508 C58.42552872 267.13765894 56.67646117 267.71525969 54.9375 268.3125 C53.714269 271.98219299 54.33603361 273.44468896 55.34301758 277.14135742 C57.05431341 284.18270344 57.41009744 290.82819892 57.44921875 298.05078125 C57.46716995 299.29756149 57.48512115 300.54434174 57.50361633 301.8289032 C57.55724215 305.76090236 57.59146143 309.69278353 57.625 313.625 C57.65662762 316.3118883 57.69251755 318.99871403 57.72851562 321.68554688 C57.81294073 328.22775859 57.88148986 334.76998654 57.9375 341.3125 C66.30244172 338.05888924 74.57278264 334.80026525 82.5 330.5625 C83.29591553 330.13912354 84.09183105 329.71574707 84.91186523 329.27954102 C95.49814 323.52250353 104.90900702 316.61268175 113.71875 308.375 C115.69487093 306.53804251 117.72704621 304.83438835 119.8125 303.125 C149.57106153 276.95180733 166.70332548 235.09444256 170.6875 196.375 C170.80239529 194.35571526 170.88034825 192.33424318 170.9375 190.3125 C170.96328125 189.54921387 170.9890625 188.78592773 171.015625 187.99951172 C171.42253152 174.47241294 170.53075047 161.59425985 167.9375 148.3125 C167.79296387 147.56629395 167.64842773 146.82008789 167.49951172 146.05126953 C158.86136036 102.87964488 132.00283641 63.89480733 95.62109375 39.30078125 C81.68530002 30.2165986 66.74523258 23.40067051 50.9375 18.3125 C49.11798828 17.71501953 49.11798828 17.71501953 47.26171875 17.10546875 C-13.46344331 -0.92970174 -82.10981631 20.60765391 -124.0625 67.3125 Z " fill="#34393E" transform="translate(254.0625,75.6875)"/>
<path d="M0 0 C0.77730469 0.72445312 1.55460937 1.44890625 2.35546875 2.1953125 C4.29217432 3.99443789 6.28148736 5.68459196 8.3125 7.375 C50.3168722 44.23425834 76.71549223 102.89000368 80.35498047 158.23925781 C83.54072988 223.00543605 64.93696194 284.37963757 21.5 333.1875 C20.82952637 333.95054443 20.82952637 333.95054443 20.14550781 334.72900391 C-15.48530829 375.19524753 -65.47562137 400.89596308 -118.5 409.1875 C-119.24443359 409.30609375 -119.98886719 409.4246875 -120.75585938 409.546875 C-180.97328347 418.66908172 -243.68068343 401.85815635 -292.56640625 366.16015625 C-298.44686313 361.76947231 -304.02006341 357.06441501 -309.5 352.1875 C-310.00869629 351.74051758 -310.51739258 351.29353516 -311.04150391 350.83300781 C-329.90701614 334.22178975 -344.68224378 314.74092447 -357.5 293.1875 C-358.06195068 292.24970703 -358.06195068 292.24970703 -358.63525391 291.29296875 C-388.40901156 240.88296519 -395.09732358 175.99034455 -380.99609375 119.70703125 C-371.34845019 83.25965397 -354.32314236 49.04438807 -328.48828125 21.328125 C-326.70992158 19.41350594 -325.04300062 17.44754632 -323.375 15.4375 C-286.50136816 -26.60691699 -227.84669021 -53.02475749 -172.44824219 -56.66748047 C-109.63210854 -59.75731016 -47.47879301 -42.63696785 0 0 Z M-196.5 -41.8125 C-197.51900391 -41.61897949 -198.53800781 -41.42545898 -199.58789062 -41.22607422 C-233.1928639 -34.48605788 -264.80891567 -19.21748394 -291.5 2.1875 C-292.49644531 2.98027344 -293.49289062 3.77304688 -294.51953125 4.58984375 C-308.77663983 16.16764505 -321.72751968 29.30615747 -332.5 44.1875 C-333.26441406 45.23035156 -334.02882813 46.27320312 -334.81640625 47.34765625 C-351.20994869 70.35563668 -363.28463072 95.92218153 -370.3125 123.3125 C-370.49514404 124.0135083 -370.67778809 124.7145166 -370.8659668 125.43676758 C-374.65743047 141.18929217 -375.97715926 156.87893551 -375.83618164 173.04345703 C-375.81239915 175.94982412 -375.81567893 178.85527741 -375.82226562 181.76171875 C-375.80604762 192.73351713 -375.22210938 203.34470498 -373.5 214.1875 C-373.35941162 215.10160645 -373.21882324 216.01571289 -373.07397461 216.95751953 C-366.80318967 255.21276793 -348.80522979 291.94691802 -323.5 321.1875 C-322.81808594 321.98027344 -322.13617188 322.77304687 -321.43359375 323.58984375 C-310.79580837 335.67734574 -299.4992163 346.67477871 -286.5 356.1875 C-285.45328125 356.95578125 -284.4065625 357.7240625 -283.328125 358.515625 C-234.36401907 393.35078494 -175.68061739 406.15667347 -116.5 397.1875 C-115.64905762 397.0642334 -114.79811523 396.9409668 -113.92138672 396.81396484 C-75.57046854 391.04627089 -38.58190309 372.50352553 -9.5 347.1875 C-8.60410156 346.42050781 -7.70820313 345.65351563 -6.78515625 344.86328125 C-4.30403449 342.68777578 -1.8930409 340.45960622 0.5 338.1875 C1.02803223 337.68669922 1.55606445 337.18589844 2.10009766 336.66992188 C10.7409782 328.41638275 18.39619303 319.79166008 25.5 310.1875 C26.098125 309.39601563 26.69625 308.60453125 27.3125 307.7890625 C44.9823413 283.57798187 58.60491049 254.65067889 64.5 225.1875 C64.68191895 224.32979004 64.86383789 223.47208008 65.05126953 222.58837891 C68.28121648 206.82634699 68.89850904 191.28305138 68.9375 175.25 C68.94662415 173.83323471 68.94662415 173.83323471 68.95593262 172.3878479 C69.02844803 155.17609053 67.33618417 138.40171465 62.8125 121.75 C62.55831299 120.8002832 62.30412598 119.85056641 62.04223633 118.87207031 C53.99693892 89.81171438 40.36342199 62.71748283 21.5 39.1875 C20.71882813 38.20265625 19.93765625 37.2178125 19.1328125 36.203125 C6.4767906 20.57773953 -8.00120158 6.68026914 -24.5 -4.8125 C-25.18916504 -5.29267578 -25.87833008 -5.77285156 -26.58837891 -6.26757812 C-43.76635054 -18.08120072 -61.82605377 -26.97460405 -81.5 -33.8125 C-82.7065625 -34.23789062 -82.7065625 -34.23789062 -83.9375 -34.671875 C-102.3676341 -41.09817176 -121.44860231 -44.92554174 -140.9921875 -45.015625 C-141.97760529 -45.02132507 -142.96302307 -45.02702515 -143.978302 -45.03289795 C-146.05746404 -45.04229654 -148.13664064 -45.04886133 -150.21582031 -45.05273438 C-153.33165958 -45.06236603 -156.44681706 -45.09340879 -159.5625 -45.125 C-172.17392774 -45.19191827 -184.1308454 -44.27444053 -196.5 -41.8125 Z " fill="#35383C" transform="translate(409.5,78.8125)"/>
<path d="M0 0 C0 21.12 0 42.24 0 64 C-9.57 64.99 -19.14 65.98 -29 67 C-32.3 67.66 -35.6 68.32 -39 69 C-44.3271837 69.58185259 -46.9877029 68.18991431 -51.5 65.375 C-63.17300292 58.33135222 -75.28681879 52.63012777 -89.125 52.6875 C-89.91003906 52.67138672 -90.69507813 52.65527344 -91.50390625 52.63867188 C-96.1262769 52.63477443 -99.32224262 52.89602807 -103 56 C-104.92718063 59.1002471 -105.90656752 62.52811822 -107 66 C-107.30164063 66.92683594 -107.60328125 67.85367188 -107.9140625 68.80859375 C-111.08713831 80.21090821 -111.13527264 93.08380047 -109.2578125 104.75 C-108.71280865 109.26716698 -109.94369913 111.52542933 -112.625 115.25 C-116.85945499 121.51352237 -119.71332035 127.75884778 -122 135 C-122.3196875 135.99515625 -122.639375 136.9903125 -122.96875 138.015625 C-129.73221295 163.44123571 -125.23284214 193.28577028 -112.8125 216.25 C-98.84442542 238.91343226 -76.39971588 249.15723418 -52 257 C-52.66 259.64 -53.32 262.28 -54 265 C-61.08249928 266.77062482 -69.88624296 267.83551001 -76.4375 264 C-81.94519059 259.83106576 -86.04934367 254.32295371 -90.125 248.8125 C-97.20818886 239.25019505 -107.09074328 231.35518883 -119 229 C-126.49684912 228.34670315 -132.75903165 228.4839224 -139 233 C-142.03447293 235.74081426 -142.77814759 238.79431133 -143.109375 242.859375 C-142.84147144 248.10263033 -140.50743673 251.63214075 -136.6796875 255.10546875 C-134.15191892 257.11636525 -131.58338673 259.06140637 -129 261 C-122.71485909 266.57092035 -118.74483278 273.32282985 -115.18554688 280.83886719 C-109.35489081 293.09921933 -102.19205006 301.56053694 -90 308 C-89.22914063 308.41121094 -88.45828125 308.82242187 -87.6640625 309.24609375 C-77.90671295 313.55637923 -66.49491375 313.32917288 -56 314 C-56 318.62 -56 323.24 -56 328 C-62.44301714 326.92616381 -67.12248308 324.87324961 -72.9375 322.0625 C-73.96004883 321.56959473 -74.98259766 321.07668945 -76.03613281 320.56884766 C-88.90649701 314.23500701 -100.18906753 306.42612598 -111 297 C-111.73645752 296.36408936 -111.73645752 296.36408936 -112.48779297 295.71533203 C-119.7944074 289.3727365 -126.0974042 282.70137956 -132 275 C-132.72703125 274.08863281 -133.4540625 273.17726563 -134.203125 272.23828125 C-161.10286451 237.76711157 -173.14522753 192.8902056 -168.25 149.5 C-162.51660591 104.06982775 -139.67525174 62.59828693 -103.53515625 34.25 C-94.84124087 27.60076044 -85.71107907 22.03091758 -76 17 C-74.95714844 16.45730469 -73.91429687 15.91460937 -72.83984375 15.35546875 C-58.42086475 8.30412289 -42.82039512 3.5676047 -27 1 C-18.11636792 -0.48060535 -9.00617072 0 0 0 Z " fill="#559EED" transform="translate(256,88)"/>
</svg>
